<svg width="406" height="406" viewBox="0 0 406 406" fill="none" xmlns="http://www.w3.org/2000/svg">
<mask id="path-1-inside-1_104_63" fill="white">
<path d="M0 86C0 38.5035 38.5035 0 86 0H320C367.496 0 406 38.5035 406 86V320C406 367.496 367.496 406 320 406H86C38.5035 406 0 367.496 0 320V86Z"/>
</mask>
<path d="M0 86C0 38.5035 38.5035 0 86 0H320C367.496 0 406 38.5035 406 86V320C406 367.496 367.496 406 320 406H86C38.5035 406 0 367.496 0 320V86Z" fill="url(#paint0_linear_104_63)"/>
<g clip-path="url(#paint1_angular_104_63_clip_path)" data-figma-skip-parse="true" mask="url(#path-1-inside-1_104_63)"><g transform="matrix(-0.18325 0.1765 -0.1765 -0.18325 199.25 201.5)"><foreignObject x="-1170.42" y="-1170.42" width="2340.85" height="2340.85"><div xmlns="http://www.w3.org/1999/xhtml" style="background:conic-gradient(from 90deg,rgba(167, 134, 249, 1) 0deg,rgba(159, 133, 250, 1) 44.9772deg,rgba(152, 132, 251, 1) 95.0619deg,rgba(224, 144, 244, 1) 158.131deg,rgba(196, 139, 246, 1) 249.795deg,rgba(167, 134, 249, 1) 360deg);height:100%;width:100%;opacity:1"></div></foreignObject></g></g><path d="M86 0V5H320V0V-5H86V0ZM406 86H401V320H406H411V86H406ZM320 406V401H86V406V411H320V406ZM0 320H5V86H0H-5V320H0ZM86 406V401C41.2649 401 5 364.735 5 320H0H-5C-5 370.258 35.7421 411 86 411V406ZM406 320H401C401 364.735 364.735 401 320 401V406V411C370.258 411 411 370.258 411 320H406ZM320 0V5C364.735 5 401 41.2649 401 86H406H411C411 35.7421 370.258 -5 320 -5V0ZM86 0V-5C35.7421 -5 -5 35.7421 -5 86H0H5C5 41.2649 41.2649 5 86 5V0Z" data-figma-gradient-fill="{&#34;type&#34;:&#34;GRADIENT_ANGULAR&#34;,&#34;stops&#34;:[{&#34;color&#34;:{&#34;r&#34;:0.62352943420410156,&#34;g&#34;:0.52156865596771240,&#34;b&#34;:0.98039215803146362,&#34;a&#34;:1.0},&#34;position&#34;:0.12493669241666794},{&#34;color&#34;:{&#34;r&#34;:0.59607845544815063,&#34;g&#34;:0.51764708757400513,&#34;b&#34;:0.98431372642517090,&#34;a&#34;:1.0},&#34;position&#34;:0.26406082510948181},{&#34;color&#34;:{&#34;r&#34;:0.87843137979507446,&#34;g&#34;:0.56470590829849243,&#34;b&#34;:0.95686274766921997,&#34;a&#34;:1.0},&#34;position&#34;:0.43925273418426514},{&#34;color&#34;:{&#34;r&#34;:0.76862746477127075,&#34;g&#34;:0.54509806632995605,&#34;b&#34;:0.96470588445663452,&#34;a&#34;:1.0},&#34;position&#34;:0.69387423992156982},{&#34;color&#34;:{&#34;r&#34;:0.65490198135375977,&#34;g&#34;:0.52549022436141968,&#34;b&#34;:0.97647058963775635,&#34;a&#34;:1.0},&#34;position&#34;:1.0}],&#34;stopsVar&#34;:[{&#34;color&#34;:{&#34;r&#34;:0.62352943420410156,&#34;g&#34;:0.52156865596771240,&#34;b&#34;:0.98039215803146362,&#34;a&#34;:1.0},&#34;position&#34;:0.12493669241666794},{&#34;color&#34;:{&#34;r&#34;:0.59607845544815063,&#34;g&#34;:0.51764708757400513,&#34;b&#34;:0.98431372642517090,&#34;a&#34;:1.0},&#34;position&#34;:0.26406082510948181},{&#34;color&#34;:{&#34;r&#34;:0.87843137979507446,&#34;g&#34;:0.56470590829849243,&#34;b&#34;:0.95686274766921997,&#34;a&#34;:1.0},&#34;position&#34;:0.43925273418426514},{&#34;color&#34;:{&#34;r&#34;:0.76862746477127075,&#34;g&#34;:0.54509806632995605,&#34;b&#34;:0.96470588445663452,&#34;a&#34;:1.0},&#34;position&#34;:0.69387423992156982},{&#34;color&#34;:{&#34;r&#34;:0.65490198135375977,&#34;g&#34;:0.52549022436141968,&#34;b&#34;:0.97647058963775635,&#34;a&#34;:1.0},&#34;position&#34;:1.0}],&#34;transform&#34;:{&#34;m00&#34;:-366.50,&#34;m01&#34;:-352.99996948242188,&#34;m02&#34;:558.99993896484375,&#34;m10&#34;:352.99996948242188,&#34;m11&#34;:-366.50,&#34;m12&#34;:208.250},&#34;opacity&#34;:1.0,&#34;blendMode&#34;:&#34;NORMAL&#34;,&#34;visible&#34;:true}" mask="url(#path-1-inside-1_104_63)"/>
<rect x="356" y="290" width="23" height="307" transform="rotate(90 356 290)" fill="white"/>
<path d="M123 84H148V269H123.5L123 84Z" fill="white"/>
<path d="M58 207.361L74.1657 191L150.117 266.046L133.951 282.407L58 207.361Z" fill="white"/>
<path d="M212.117 209.361L195.951 193L120 268.046L136.166 284.407L212.117 209.361Z" fill="white"/>
<path d="M228.857 124.5H203.429V111.75H190.714V99H216.143V111.75H228.857V124.5ZM228.857 99H241.571V111.75H228.857V99ZM279.714 162.75H292.429V175.5H279.714V213.75H254.286V124.5H267V111.75H292.429V99H305.143V111.75H317.857V124.5H279.714V162.75ZM178 111.75H190.714V124.5H178V111.75ZM241.571 111.75H254.286V124.5H241.571V111.75ZM203.429 175.5H228.857V162.75H203.429V150H228.857V124.5H241.571V213.75H228.857V188.25H203.429V175.5ZM305.143 137.25H330.571V150H343.286V175.5H330.571V188.25H317.857V150H305.143V137.25ZM292.429 150H305.143V162.75H292.429V150ZM292.429 188.25H317.857V201H292.429V188.25ZM317.857 201H330.571V213.75H343.286V239.25H356V252H330.571V239.25H317.857V201ZM279.714 213.75H292.429V226.5H279.714V213.75ZM216.143 226.5H279.714V239.25H267V252H228.857V239.25H216.143V226.5ZM203.429 239.25H216.143V252H203.429V239.25Z" fill="white"/>
<defs>
<clipPath id="paint1_angular_104_63_clip_path"><path d="M86 0V5H320V0V-5H86V0ZM406 86H401V320H406H411V86H406ZM320 406V401H86V406V411H320V406ZM0 320H5V86H0H-5V320H0ZM86 406V401C41.2649 401 5 364.735 5 320H0H-5C-5 370.258 35.7421 411 86 411V406ZM406 320H401C401 364.735 364.735 401 320 401V406V411C370.258 411 411 370.258 411 320H406ZM320 0V5C364.735 5 401 41.2649 401 86H406H411C411 35.7421 370.258 -5 320 -5V0ZM86 0V-5C35.7421 -5 -5 35.7421 -5 86H0H5C5 41.2649 41.2649 5 86 5V0Z" mask="url(#path-1-inside-1_104_63)"/></clipPath><linearGradient id="paint0_linear_104_63" x1="14" y1="-4.99999" x2="406" y2="411.5" gradientUnits="userSpaceOnUse">
<stop stop-color="#657CFF"/>
<stop offset="1" stop-color="#FF94F1"/>
</linearGradient>
</defs>
</svg>
